{"extensionsUsed" : ["KHR_materials_pbrSpecularGlossiness"], "accessors" : [{"bufferView" : 0, "byteOffset" : 0, "componentType" : 5123, "count" : 80946, "type" : "SCALAR", "max" : [15192], "min" : [0]}, {"bufferView" : 1, "byteOffset" : 0, "componentType" : 5126, "count" : 15193, "type" : "VEC3", "max" : [2.519564628601074, 3.121828556060791, 2.5195651054382324], "min" : [-2.5195658206939697, -5.061900083092041E-06, -2.519566297531128]}, {"bufferView" : 1, "byteOffset" : 12, "componentType" : 5126, "count" : 15193, "type" : "VEC3", "max" : [1.0000022649765015, 1.0000044107437134, 1.0000022649765015], "min" : [-1.0000035762786865, -1.0000044107437134, -1.0000022649765015]}, {"bufferView" : 1, "byteOffset" : 24, "componentType" : 5126, "count" : 15193, "type" : "VEC2", "max" : [0.9898928999900818, 0.9954147934913635], "min" : [0.008785485289990902, 0.007620573043823242]}], "asset" : {"generator" : "Aspose.3D 20.12.2", "version" : "2.0"}, "buffers" : [{"uri" : "buffer.bin", "byteLength" : 4194060}], "bufferViews" : [{"buffer" : 0, "byteOffset" : 0, "byteLength" : 161892, "target" : 34963}, {"buffer" : 0, "byteOffset" : 161896, "byteLength" : 2590272, "byteStride" : 32, "target" : 34962}, {"buffer" : 0, "byteOffset" : 2752172, "byteLength" : 726133}, {"buffer" : 0, "byteOffset" : 3478308, "byteLength" : 715751}], "images" : [{"mimeType" : "image/png", "bufferView" : 2}, {"mimeType" : "image/png", "bufferView" : 3}], "materials" : [{"extensions" : {"KHR_materials_pbrSpecularGlossiness" : {"diffuseFactor" : [1, 1, 1, 1], "diffuseTexture" : {"index" : 0, "texCoord" : 0}, "specularFactor" : [1, 1, 1], "glossinessFactor" : 1, "specularGlossinessTexture" : {"index" : 1, "texCoord" : 0, "scale" : 1}}}, "pbrMetallicRoughness" : {"baseColorFactor" : [1, 1, 1, 1], "metallicFactor" : 1, "roughnessFactor" : 1}, "emissiveFactor" : [0, 0, 0], "alphaMode" : "OPAQUE", "doubleSided" : true}], "meshes" : [{"primitives" : [{"attributes" : {"POSITION" : 1, "NORMAL" : 2, "TEXCOORD_0" : 3}, "indices" : 0, "material" : 0, "mode" : 4}]}], "nodes" : [{"matrix" : [0.10160484164953232, 0, 0, 0, 0, 0.10160484164953232, 0, 0, 0, 0, 0.10160484164953232, 0, 9.755186880511246E-08, -0.15859642624855042, 0.2560001313686371, 1], "mesh" : 0, "name" : "node_id30"}, {"children" : [0], "name" : "root"}], "samplers" : [{"magFilter" : 9729, "minFilter" : 9985, "wrapS" : 10497, "wrapT" : 10497}, {"magFilter" : 9729, "minFilter" : 9985, "wrapS" : 10497, "wrapT" : 10497}], "scene" : 0, "scenes" : [{"nodes" : [1]}], "textures" : [{"sampler" : 0, "source" : 0}, {"sampler" : 1, "source" : 1}]}